<svg version="1.1" id="Layer_1" xmlns="http://www.w3.org/2000/svg" xmlns:xlink="http://www.w3.org/1999/xlink" x="0px" y="0px"
	 width="100%" viewBox="0 0 1000 1000" enable-background="new 0 0 1000 1000" xml:space="preserve">
<path fill="#000000" opacity="1.000000" stroke="none" 
	d="
M1001.000000,504.000000 
	C1001.000000,669.631714 1001.000000,835.263367 1001.000000,1000.947510 
	C667.772034,1000.947510 334.544037,1000.947510 1.000000,1000.947510 
	C1.000000,838.306641 1.000000,675.613037 1.353607,512.391846 
	C2.815346,513.270203 4.114128,514.565674 5.003315,516.098694 
	C21.413601,544.391052 37.774944,572.711792 54.185997,601.375854 
	C54.568813,602.085083 55.001091,602.393616 55.242847,602.812195 
	C64.277306,618.452881 73.309555,634.094910 82.309662,649.755432 
	C93.956230,670.020813 105.529015,690.328735 117.219048,710.568970 
	C129.246094,731.392761 141.366638,752.162598 153.463699,772.945862 
	C162.618088,788.673523 171.799789,804.385315 181.105927,820.429077 
	C182.005646,822.177979 182.741943,823.617126 183.536011,825.023621 
	C193.434036,842.555786 203.209381,860.158997 213.285294,877.588379 
	C221.655228,892.066711 230.480087,906.281555 238.915894,920.722595 
	C244.832214,930.850525 253.601532,936.798157 265.134003,936.869568 
	C310.067596,937.147705 355.004272,936.919617 400.411011,936.915405 
	C431.665924,936.967346 462.449677,937.006592 493.233398,936.993896 
	C528.841675,936.979187 564.450012,936.918762 600.520691,936.930542 
	C646.563477,936.655151 692.146423,936.502441 737.722107,935.847473 
	C746.516174,935.721130 754.231018,931.530029 758.994751,923.698120 
	C768.031311,908.841248 776.861572,893.856140 785.592285,878.816772 
	C794.973938,862.656006 804.066772,846.327637 813.423279,830.152100 
	C825.059814,810.035278 836.898010,790.035156 848.535217,769.918823 
	C857.894470,753.740173 867.044800,737.440796 876.360352,721.236694 
	C886.487305,703.621155 896.692200,686.050415 906.873962,668.466370 
	C915.990967,652.721252 925.190369,637.023315 934.215637,621.225830 
	C937.986877,614.624878 941.401855,607.820374 945.283203,600.936707 
	C946.014465,600.261536 946.530579,599.809570 946.855469,599.247131 
	C958.190430,579.623291 969.575256,560.027771 980.798889,540.340332 
	C986.611633,530.144348 992.127075,519.779053 997.794617,509.500061 
	C998.818970,507.642395 999.929382,505.832153 1001.000000,504.000000 
z"/>
<path fill="#000000" opacity="1.000000" stroke="none" 
	d="
M0.999996,486.000000 
	C1.000000,324.367615 1.000000,162.735229 1.000000,1.051428 
	C334.228333,1.051428 667.456726,1.051428 1001.000000,1.051428 
	C1001.000000,164.693405 1001.000000,328.386993 1000.629944,492.535126 
	C999.102173,490.499573 998.108704,487.916504 996.760559,485.534149 
	C986.578064,467.540009 976.380188,449.554077 966.074585,431.630219 
	C960.148376,421.323212 954.012573,411.136688 947.862549,400.563965 
	C945.902832,397.017181 944.042114,393.807800 942.202209,390.586548 
	C934.269592,376.698761 926.360962,362.797180 918.409729,348.920044 
	C908.288391,331.255585 898.137756,313.607910 887.993103,295.956818 
	C880.116089,282.251221 872.253601,268.537170 864.339661,254.852875 
	C856.252991,240.870041 848.146973,226.898163 839.982544,212.960693 
	C833.721924,202.273254 827.357361,191.646729 820.998657,180.621155 
	C820.155151,178.513733 819.487244,176.699341 818.528015,175.054901 
	C808.176453,157.310028 797.802307,139.578186 787.387329,121.870438 
	C777.624695,105.271835 767.985474,88.596054 757.915466,72.185249 
	C754.294617,66.284439 748.727112,62.763287 741.279541,62.959332 
	C734.129700,63.147545 726.970947,62.992832 719.816101,63.001179 
	C679.885376,63.047764 639.954590,63.098103 599.556030,63.097240 
	C549.350403,63.031548 499.612488,63.002441 449.874603,63.007492 
	C433.241791,63.009182 416.608948,63.098118 399.510712,63.078888 
	C352.245300,63.007069 305.445007,62.934658 258.645935,63.140259 
	C255.174698,63.155506 251.506699,64.752014 248.289734,66.341240 
	C242.150208,69.374237 239.216049,75.387444 236.008240,81.020164 
	C230.126221,91.348663 224.372772,101.750916 218.434830,112.046921 
	C208.722000,128.888306 198.873230,145.651260 189.139969,162.480942 
	C180.135910,178.049820 171.237320,193.679672 162.238144,209.251404 
	C154.199966,223.160278 146.026764,236.991348 138.026413,250.921799 
	C130.748154,263.594910 123.694298,276.396942 116.410995,289.067108 
	C107.288109,304.937500 98.038467,320.735046 88.831375,336.556976 
	C81.800377,348.639404 74.686478,360.674072 67.729767,372.799042 
	C62.393909,382.098999 57.245750,391.506653 51.727558,401.064972 
	C45.470707,411.492340 39.436626,421.684570 33.544552,431.958221 
	C23.883551,448.803528 14.345943,465.719696 4.649773,482.544586 
	C3.848167,483.935547 2.235707,484.859192 0.999996,486.000000 
z"/>
<path fill="#002D68" opacity="1.000000" stroke="none" 
	d="
M947.971130,400.895905 
	C954.012573,411.136688 960.148376,421.323212 966.074585,431.630219 
	C976.380188,449.554077 986.578064,467.540009 996.760559,485.534149 
	C998.108704,487.916504 999.102173,490.499573 1000.629944,492.994812 
	C1001.000000,496.361298 1001.000000,499.722565 1001.000000,503.541931 
	C999.929382,505.832153 998.818970,507.642395 997.794617,509.500061 
	C992.127075,519.779053 986.611633,530.144348 980.798889,540.340332 
	C969.575256,560.027771 958.190430,579.623291 946.855469,599.247131 
	C946.530579,599.809570 946.014465,600.261536 944.816040,600.892883 
	C915.383362,601.062195 886.722351,601.103638 857.769653,600.919800 
	C846.096802,570.014648 834.716614,539.334595 823.334290,508.655243 
	C813.732727,482.775726 804.080261,456.915009 794.550781,431.009003 
	C790.908691,421.107727 787.545837,411.103699 784.517151,401.084290 
	C790.645081,401.014709 796.311584,401.004517 801.978088,401.000397 
	C850.642456,400.964935 899.306763,400.930603 947.971130,400.895905 
z"/>
<path fill="#003882" opacity="1.000000" stroke="none" 
	d="
M0.999996,486.468658 
	C2.235707,484.859192 3.848167,483.935547 4.649773,482.544586 
	C14.345943,465.719696 23.883551,448.803528 33.544552,431.958221 
	C39.436626,421.684570 45.470707,411.492340 52.194134,401.124817 
	C87.599449,400.982544 122.251625,400.979034 156.938019,401.443481 
	C156.954819,468.279449 156.937424,534.647522 156.456421,601.008911 
	C122.044083,601.010376 88.095345,601.018494 54.146614,601.026550 
	C37.774944,572.711792 21.413601,544.391052 5.003315,516.098694 
	C4.114128,514.565674 2.815346,513.270203 1.353607,511.932098 
	C1.000000,503.645782 1.000000,495.291534 0.999996,486.468658 
z"/>
<path fill="#A7A7A7" opacity="1.000000" stroke="none" 
	d="
M858.061279,601.145142 
	C886.722351,601.103638 915.383362,601.062195 944.511597,601.064575 
	C941.401855,607.820374 937.986877,614.624878 934.215637,621.225830 
	C925.190369,637.023315 915.990967,652.721252 906.873962,668.466370 
	C896.692200,686.050415 886.487305,703.621155 876.360352,721.236694 
	C867.044800,737.440796 857.894470,753.740173 848.535217,769.918823 
	C836.898010,790.035156 825.059814,810.035278 813.423279,830.152100 
	C804.066772,846.327637 794.973938,862.656006 785.592285,878.816772 
	C776.861572,893.856140 768.031311,908.841248 758.994751,923.698120 
	C754.231018,931.530029 746.516174,935.721130 737.722107,935.847473 
	C692.146423,936.502441 646.563477,936.655151 600.497986,936.472229 
	C600.008545,902.810547 600.011230,869.659485 599.998535,836.508423 
	C599.976562,779.369446 599.945068,722.230469 599.966187,664.697510 
	C606.167297,646.246216 612.334290,628.193787 618.459656,610.127258 
	C619.594788,606.779236 622.257263,606.985718 624.978699,606.986816 
	C670.129822,607.005615 715.281006,607.044067 760.431763,606.919067 
	C764.168274,606.908752 765.894531,607.921021 767.143860,611.620300 
	C773.567993,630.643250 780.474670,649.503357 786.884888,668.530823 
	C788.169983,672.345520 790.099976,673.090088 793.719482,673.073059 
	C821.875732,672.940796 850.033020,673.004272 878.189941,672.989685 
	C879.938660,672.988831 881.687195,672.839844 883.943420,672.736511 
	C878.808411,658.737732 873.866943,645.396545 869.023315,632.019958 
	C865.305237,621.751587 861.710693,611.438416 858.061279,601.145142 
z"/>
<path fill="#002556" opacity="1.000000" stroke="none" 
	d="
M599.917664,665.091492 
	C599.945068,722.230469 599.976562,779.369446 599.998535,836.508423 
	C600.011230,869.659485 600.008545,902.810547 600.035583,936.419922 
	C564.450012,936.918762 528.841675,936.979187 493.233398,936.993896 
	C462.449677,937.006592 431.665924,936.967346 400.434448,936.456970 
	C399.998596,848.315857 400.010498,760.668823 400.489655,673.013855 
	C462.614441,673.003906 524.272095,672.942017 585.929260,673.090210 
	C592.275208,673.105469 598.159363,673.563171 599.509583,665.359802 
	C599.527527,665.250916 599.776550,665.180115 599.917664,665.091492 
z"/>
<path fill="#A7A7A7" opacity="1.000000" stroke="none" 
	d="
M400.022400,673.021790 
	C400.010498,760.668823 399.998596,848.315857 399.963257,936.421387 
	C355.004272,936.919617 310.067596,937.147705 265.134003,936.869568 
	C253.601532,936.798157 244.832214,930.850525 238.915894,920.722595 
	C230.480087,906.281555 221.655228,892.066711 213.285294,877.588379 
	C203.209381,860.158997 193.434036,842.555786 183.536011,825.023621 
	C182.741943,823.617126 182.005646,822.177979 181.278320,820.138428 
	C182.688599,818.073547 184.030411,816.591492 185.442169,815.179443 
	C242.585785,758.024841 299.737976,700.878723 356.872925,643.715393 
	C358.393097,642.194458 359.735382,640.495728 361.441467,639.052002 
	C371.036713,648.532410 380.190491,658.010986 389.765350,667.043213 
	C392.569214,669.688171 396.570129,671.064148 400.022400,673.021790 
z"/>
<path fill="#D2D2D2" opacity="1.000000" stroke="none" 
	d="
M361.160645,638.879883 
	C359.735382,640.495728 358.393097,642.194458 356.872925,643.715393 
	C299.737976,700.878723 242.585785,758.024841 185.442169,815.179443 
	C184.030411,816.591492 182.688599,818.073547 181.141754,819.813538 
	C171.799789,804.385315 162.618088,788.673523 153.463699,772.945862 
	C141.366638,752.162598 129.246094,731.392761 117.219048,710.568970 
	C105.529015,690.328735 93.956230,670.020813 82.309662,649.755432 
	C73.309555,634.094910 64.277306,618.452881 55.242847,602.812195 
	C55.001091,602.393616 54.568813,602.085083 54.185997,601.375854 
	C88.095345,601.018494 122.044083,601.010376 156.487305,601.476440 
	C156.981796,625.520081 156.981796,649.089539 156.981796,672.670532 
	C189.041687,672.670532 220.270935,672.670532 252.081299,672.670532 
	C252.081299,648.568115 252.081299,624.791809 252.542114,601.008972 
	C276.316925,600.952026 299.630920,600.901550 323.253967,600.999268 
	C336.095551,613.724915 348.628082,626.302368 361.160645,638.879883 
z"/>
<path fill="#003882" opacity="1.000000" stroke="none" 
	d="
M399.976135,63.147179 
	C416.608948,63.098118 433.241791,63.009182 449.874603,63.007492 
	C499.612488,63.002441 549.350403,63.031548 599.545532,63.554169 
	C600.002075,174.690308 600.000793,285.319611 600.004761,395.948883 
	C600.004822,397.613464 600.069885,399.278015 599.809204,401.110168 
	C597.941406,402.757904 596.329041,404.197998 594.802612,405.724060 
	C538.447754,462.065094 482.102844,518.416077 425.742218,574.751343 
	C424.220703,576.272156 422.540253,577.634094 420.642761,578.908936 
	C387.623322,546.108887 354.895050,513.470032 321.984375,480.649261 
	C380.376556,423.183838 438.443298,366.038635 497.515656,307.903809 
	C463.924530,307.903809 431.950043,307.903809 399.986450,307.441284 
	C399.990295,225.701569 399.983215,144.424377 399.976135,63.147179 
z"/>
<path fill="#FFFFFF" opacity="1.000000" stroke="none" 
	d="
M399.510712,63.078888 
	C399.983215,144.424377 399.990295,225.701569 399.523804,307.481659 
	C395.889313,307.989807 392.702301,307.754395 389.577667,308.093353 
	C387.790802,308.287201 385.691284,308.984924 384.437744,310.189575 
	C370.617035,323.471527 356.866119,336.828125 343.233917,350.303711 
	C328.563171,364.805939 314.071838,379.489655 299.420166,394.011383 
	C296.807495,396.600830 293.794952,398.786804 290.503937,401.088074 
	C277.393188,401.003387 264.745605,400.989716 252.057449,400.510437 
	C252.016907,369.481171 252.016907,338.917511 252.016907,308.332642 
	C220.023453,308.332642 188.665802,308.332642 156.903809,308.332642 
	C156.903809,339.434570 156.903809,370.205048 156.903809,400.975525 
	C122.251625,400.979034 87.599449,400.982544 52.480690,400.926239 
	C57.245750,391.506653 62.393909,382.098999 67.729767,372.799042 
	C74.686478,360.674072 81.800377,348.639404 88.831375,336.556976 
	C98.038467,320.735046 107.288109,304.937500 116.410995,289.067108 
	C123.694298,276.396942 130.748154,263.594910 138.026413,250.921799 
	C146.026764,236.991348 154.199966,223.160278 162.238144,209.251404 
	C171.237320,193.679672 180.135910,178.049820 189.139969,162.480942 
	C198.873230,145.651260 208.722000,128.888306 218.434830,112.046921 
	C224.372772,101.750916 230.126221,91.348663 236.008240,81.020164 
	C239.216049,75.387444 242.150208,69.374237 248.289734,66.341240 
	C251.506699,64.752014 255.174698,63.155506 258.645935,63.140259 
	C305.445007,62.934658 352.245300,63.007069 399.510712,63.078888 
z"/>
<path fill="#FFFFFF" opacity="1.000000" stroke="none" 
	d="
M600.104614,400.942596 
	C600.069885,399.278015 600.004822,397.613464 600.004761,395.948883 
	C600.000793,285.319611 600.002075,174.690308 600.013367,63.604088 
	C639.954590,63.098103 679.885376,63.047764 719.816101,63.001179 
	C726.970947,62.992832 734.129700,63.147545 741.279541,62.959332 
	C748.727112,62.763287 754.294617,66.284439 757.915466,72.185249 
	C767.985474,88.596054 777.624695,105.271835 787.387329,121.870438 
	C797.802307,139.578186 808.176453,157.310028 818.528015,175.054901 
	C819.487244,176.699341 820.155151,178.513733 820.649109,180.636444 
	C818.926880,182.147644 817.388306,183.145920 816.119019,184.413773 
	C776.304932,224.183945 736.512329,263.975647 696.749451,303.796936 
	C695.615479,304.932556 694.840393,306.426453 693.442139,307.834900 
	C675.320801,307.944427 657.655334,308.000671 639.990051,307.969971 
	C637.295837,307.965302 635.633728,308.243652 634.609375,311.497162 
	C632.119446,319.405426 628.900452,327.084625 625.961670,334.850983 
	C617.621765,356.890930 609.275146,378.928375 600.724121,400.976685 
	C600.517029,400.986572 600.104614,400.942596 600.104614,400.942596 
z"/>
<path fill="#CBCBCB" opacity="1.000000" stroke="none" 
	d="
M693.898010,307.753296 
	C694.840393,306.426453 695.615479,304.932556 696.749451,303.796936 
	C736.512329,263.975647 776.304932,224.183945 816.119019,184.413773 
	C817.388306,183.145920 818.926880,182.147644 820.689453,181.008392 
	C827.357361,191.646729 833.721924,202.273254 839.982544,212.960693 
	C848.146973,226.898163 856.252991,240.870041 864.339661,254.852875 
	C872.253601,268.537170 880.116089,282.251221 887.993103,295.956818 
	C898.137756,313.607910 908.288391,331.255585 918.409729,348.920044 
	C926.360962,362.797180 934.269592,376.698761 942.202209,390.586548 
	C944.042114,393.807800 945.902832,397.017181 947.862549,400.563965 
	C899.306763,400.930603 850.642456,400.964935 801.978088,401.000397 
	C796.311584,401.004517 790.645081,401.014709 784.210571,400.874512 
	C772.748291,372.052185 761.830200,343.457214 751.556702,314.632477 
	C749.605896,309.159119 747.238098,307.760071 741.791321,307.863220 
	C725.833313,308.165375 709.863281,307.835541 693.898010,307.753296 
z"/>
<path fill="#6E6E6E" opacity="1.000000" stroke="none" 
	d="
M693.442139,307.834930 
	C709.863281,307.835541 725.833313,308.165375 741.791321,307.863220 
	C747.238098,307.760071 749.605896,309.159119 751.556702,314.632477 
	C761.830200,343.457214 772.748291,372.052185 783.749146,400.936707 
	C787.545837,411.103699 790.908691,421.107727 794.550781,431.009003 
	C804.080261,456.915009 813.732727,482.775726 823.334290,508.655243 
	C834.716614,539.334595 846.096802,570.014648 857.769592,600.919800 
	C861.710693,611.438416 865.305237,621.751587 869.023315,632.019958 
	C873.866943,645.396545 878.808411,658.737732 883.943420,672.736511 
	C881.687195,672.839844 879.938660,672.988831 878.189941,672.989685 
	C850.033020,673.004272 821.875732,672.940796 793.719482,673.073059 
	C790.099976,673.090088 788.169983,672.345520 786.884888,668.530823 
	C780.474670,649.503357 773.567993,630.643250 767.143860,611.620300 
	C765.894531,607.921021 764.168274,606.908752 760.431763,606.919067 
	C715.281006,607.044067 670.129822,607.005615 624.978699,606.986816 
	C622.257263,606.985718 619.594788,606.779236 618.459656,610.127258 
	C612.334290,628.193787 606.167297,646.246216 599.966187,664.697510 
	C599.776550,665.180115 599.527527,665.250916 599.509583,665.359802 
	C598.159363,673.563171 592.275208,673.105469 585.929260,673.090210 
	C524.272095,672.942017 462.614441,673.003906 400.489655,673.013855 
	C396.570129,671.064148 392.569214,669.688171 389.765350,667.043213 
	C380.190491,658.010986 371.036713,648.532410 361.441467,639.052002 
	C348.628082,626.302368 336.095551,613.724915 323.108582,600.710205 
	C299.457886,577.294373 276.261597,554.315613 252.081299,530.362122 
	C252.081299,555.140381 252.081299,578.077942 252.081299,601.015503 
	C252.081299,624.791809 252.081299,648.568115 252.081299,672.670532 
	C220.270935,672.670532 189.041687,672.670532 156.981796,672.670532 
	C156.981796,649.089539 156.981796,625.520081 156.950897,601.483093 
	C156.937424,534.647522 156.954819,468.279449 156.938019,401.443481 
	C156.903809,370.205048 156.903809,339.434570 156.903809,308.332642 
	C188.665802,308.332642 220.023453,308.332642 252.016907,308.332642 
	C252.016907,338.917511 252.016907,369.481171 252.022552,400.978271 
	C252.028198,414.280060 252.028198,426.648468 252.028198,438.934143 
	C265.155304,426.199341 278.061157,413.679199 290.967041,401.159058 
	C293.794952,398.786804 296.807495,396.600830 299.420166,394.011383 
	C314.071838,379.489655 328.563171,364.805939 343.233917,350.303711 
	C356.866119,336.828125 370.617035,323.471527 384.437744,310.189575 
	C385.691284,308.984924 387.790802,308.287201 389.577667,308.093353 
	C392.702301,307.754395 395.889313,307.989807 399.512848,307.944183 
	C431.950043,307.903809 463.924530,307.903809 497.515656,307.903809 
	C438.443298,366.038635 380.376556,423.183838 321.984375,480.649261 
	C354.895050,513.470032 387.623322,546.108887 420.804077,579.197632 
	C428.472076,586.778442 435.687561,593.909424 443.064911,601.333984 
	C463.620758,621.595154 484.014740,641.562744 504.864563,661.976624 
	C509.017944,650.862122 513.067017,640.211914 516.976013,629.510620 
	C520.431824,620.050110 523.731506,610.532715 527.371216,600.803528 
	C535.050842,580.747681 542.513550,560.948792 549.856812,541.105591 
	C564.886780,500.490814 579.876038,459.860870 594.819275,419.214050 
	C597.031738,413.196045 598.902405,407.052338 600.931213,400.966797 
	C609.275146,378.928375 617.621765,356.890930 625.961670,334.850983 
	C628.900452,327.084625 632.119446,319.405426 634.609375,311.497162 
	C635.633728,308.243652 637.295837,307.965302 639.990051,307.969971 
	C657.655334,308.000671 675.320801,307.944427 693.442139,307.834930 
M682.841003,424.253967 
	C669.644714,462.302551 656.448364,500.351135 643.104187,538.825928 
	C676.415466,538.825928 708.694153,538.825928 741.781372,538.825928 
	C725.720459,492.020172 709.799255,445.621582 693.877991,399.222992 
	C693.062927,399.248627 692.247803,399.274292 691.432739,399.299927 
	C688.622925,407.360626 685.813171,415.421356 682.841003,424.253967 
z"/>
<path fill="#003882" opacity="1.000000" stroke="none" 
	d="
M252.542114,601.008972 
	C252.081299,578.077942 252.081299,555.140381 252.081299,530.362122 
	C276.261597,554.315613 299.457886,577.294373 322.799561,600.562134 
	C299.630920,600.901550 276.316925,600.952026 252.542114,601.008972 
z"/>
<path fill="#002D68" opacity="1.000000" stroke="none" 
	d="
M600.724121,400.976685 
	C598.902405,407.052338 597.031738,413.196045 594.819275,419.214050 
	C579.876038,459.860870 564.886780,500.490814 549.856812,541.105591 
	C542.513550,560.948792 535.050842,580.747681 526.894775,600.792114 
	C498.399231,601.025146 470.651154,601.032776 442.903046,601.040405 
	C435.687561,593.909424 428.472076,586.778442 421.095276,579.358765 
	C422.540253,577.634094 424.220703,576.272156 425.742218,574.751343 
	C482.102844,518.416077 538.447754,462.065094 594.802612,405.724060 
	C596.329041,404.197998 597.941406,402.757904 599.809204,401.110168 
	C600.104614,400.942596 600.517029,400.986572 600.724121,400.976685 
z"/>
<path fill="#003882" opacity="1.000000" stroke="none" 
	d="
M290.503906,401.088043 
	C278.061157,413.679199 265.155304,426.199341 252.028198,438.934143 
	C252.028198,426.648468 252.028198,414.280060 252.063095,401.443848 
	C264.745605,400.989716 277.393188,401.003387 290.503906,401.088043 
z"/>
<path fill="#002D68" opacity="1.000000" stroke="none" 
	d="
M682.922241,423.868011 
	C685.813171,415.421356 688.622925,407.360626 691.432739,399.299927 
	C692.247803,399.274292 693.062927,399.248627 693.877991,399.222992 
	C709.799255,445.621582 725.720459,492.020172 741.781372,538.825928 
	C708.694153,538.825928 676.415466,538.825928 643.104187,538.825928 
	C656.448364,500.351135 669.644714,462.302551 682.922241,423.868011 
z"/>
<path fill="#002556" opacity="1.000000" stroke="none" 
	d="
M443.064911,601.333984 
	C470.651154,601.032776 498.399231,601.025146 526.623718,601.028931 
	C523.731506,610.532715 520.431824,620.050110 516.976013,629.510620 
	C513.067017,640.211914 509.017944,650.862122 504.864563,661.976624 
	C484.014740,641.562744 463.620758,621.595154 443.064911,601.333984 
z"/>
</svg>